<svg viewBox="0 0 3752 514" fill="none" xmlns="http://www.w3.org/2000/svg">
<path d="M1957.15 307.823C1935.83 287.468 1904.79 276.625 1864.24 274.913V270.538C1900.22 269.206 1928.4 260.265 1948.77 243.145C1969.15 226.214 1979.24 203.196 1979.24 174.281C1979.24 143.655 1968 119.686 1945.73 102.184C1923.26 84.8736 1892.03 76.123 1851.86 76.123H1620.71V510.797H1833.2C1883.28 510.797 1921.93 499.954 1948.77 478.268C1975.62 456.582 1989.14 425.384 1989.14 384.865C1989.14 353.858 1978.48 328.177 1957.15 307.823ZM1716.29 150.693H1821.39C1840.82 150.693 1855.86 155.068 1866.14 164.009C1876.42 172.95 1881.75 185.505 1881.75 201.484C1881.75 219.746 1875.66 233.823 1863.66 243.715C1851.67 253.607 1834.53 258.553 1812.06 258.553H1716.29V150.503V150.693ZM1874.14 421.39C1862.52 431.281 1846.72 436.227 1826.92 436.227H1716.29V325.704H1821.97C1843.1 325.704 1860.05 330.65 1872.61 340.542C1885.18 350.434 1891.65 363.75 1891.65 380.3C1891.65 397.611 1885.94 411.307 1874.33 421.199L1874.14 421.39Z" fill="white"/>
<path d="M2137.81 76.123L1973.69 510.797H2071.94L2107.92 408.264H2285.76L2322.51 510.797H2423.8L2254.72 76.123H2137.81ZM2133.44 335.025L2158.95 262.358C2173.04 221.839 2184.65 185.315 2193.79 152.976H2198.17C2209.03 188.549 2220.83 224.882 2233.59 261.597L2259.67 334.835H2133.44V335.025Z" fill="white"/>
<path d="M2731.3 245.617C2731.3 300.784 2731.87 344.347 2733.2 376.686H2728.82C2716.25 355.19 2696.07 322.09 2668.08 277.386L2658.75 262.548L2540.7 76.3133H2435.6V510.988H2528.14V352.717C2528.14 287.848 2527.56 237.247 2526.23 200.723H2531.37C2541.65 218.605 2562.22 253.036 2593.25 304.208C2602.39 318.285 2609.06 328.748 2613.06 335.786L2722.54 510.988H2825.16V76.123H2731.3V245.617Z" fill="white"/>
<path d="M3147.14 99.7115C3113.63 83.9225 3075.55 76.123 3032.71 76.123H2858.68V510.797H3032.71C3099.35 510.797 3153.24 493.106 3193.98 457.723C3234.73 422.341 3255.29 367.555 3255.29 293.555C3255.29 245.047 3245.58 204.718 3226.35 172.189C3207.12 139.66 3180.65 115.501 3147.14 99.9017V99.7115ZM3122.58 400.655C3099.54 424.433 3068.7 436.418 3029.67 436.418H2954.46V150.693H3029.09C3068.51 150.693 3099.54 162.107 3122.58 185.125C3145.62 208.142 3157.04 244.286 3157.04 293.555C3157.04 342.825 3145.62 376.876 3122.58 400.655Z" fill="white"/>
<path d="M3284.46 510.797H3380.23V150.693H3519.41V510.797H3614.42V150.693H3751.9V76.123H3284.46V510.797Z" fill="white"/>
<path d="M1362.49 0C1277.38 0 1183.89 51.9326 1125.06 101.202L1129.63 107.86C1221.02 43.943 1347.64 2.47299 1382.48 64.8682C1400.95 97.7779 1369.54 164.168 1325.55 216.671C1336.02 193.463 1329.17 148.95 1267.67 148.95C1165.61 148.95 964.55 284.203 964.55 422.5C964.55 478.047 1003.01 514 1066.42 514C1236.06 514 1466.26 236.075 1466.26 96.6366C1466.26 47.3671 1437.89 0 1362.68 0L1362.49 0ZM1124.49 364.67C1095.17 364.67 1081.08 342.033 1088.31 315.971C1103.54 261.946 1201.22 181.859 1267.86 181.859C1316.41 181.859 1312.8 225.232 1284.43 262.326L1268.62 279.828C1212.26 335.184 1159.71 364.86 1124.49 364.86V364.67Z" fill="white"/>
<path d="M216.556 321.892C345.415 333.418 423.56 190.816 413.023 113.123C400.684 22.339 323.899 0 284.028 0C178.52 0 93.6108 73.3751 67.8458 194.726L0 514H102.177C102.177 514 154.488 267.693 171.926 185.614C182.429 136.108 223.388 100.61 263.361 100.61C299.426 100.61 323.933 122.643 324.307 155.421C324.647 210.877 278.215 272.114 223.218 287.686L216.59 321.926L216.556 321.892Z" fill="white"/>
<path d="M579.502 379.805V391.696C646.312 403.876 747.667 401.126 756.338 400.04C756.695 399.999 757.025 400.288 757.025 400.645V512.474C757.025 512.831 756.737 513.12 756.379 513.079C614.886 504.982 550.453 439.383 550.453 383.146C550.453 337.273 579.585 292.803 604.044 263.578C630.757 231.644 651.108 201.773 652.853 152.629C655.189 86.9199 594.947 73.3657 565.692 101.711C542.236 124.407 533.579 179.201 531.353 239.219C531.27 241.432 531.188 243.618 531.064 245.79C531.064 349.274 531.105 514 531.105 514H430.877V198.817C430.877 137.384 448.85 88.3908 480.483 55.2614C480.524 55.1789 480.606 55.0552 480.73 54.9727C509.216 21.5685 554.191 0 604.731 0C628.874 0 656.164 6.50215 676.213 14.049C712.888 28.2768 767.015 78.6582 760.199 160.533C753.714 238.944 708.697 293.697 665.22 328.888C621.743 364.079 579.791 379.641 579.502 379.805Z" fill="white"/>
</svg>
