<svg xmlns="http://www.w3.org/2000/svg" fill="none" viewBox="0 0 5009 689"><g fill="#FE0" stroke="#000" stroke-width="5" filter="url(#a)"><path d="M1187.74 363.7v2.4l2.4.1c53.29 2.25 93.68 16.48 121.3 42.85 27.69 26.42 41.55 59.73 41.55 100.11 0 53-17.65 93.5-52.47 121.62-34.91 28.2-85.4 42.48-151.33 42.48H870.57V103.21h303.3c52.81 0 93.51 11.5 122.65 33.95 28.81 22.64 43.37 53.6 43.37 93.4 0 37.6-13.08 67.32-39.4 89.19h-.01c-26.39 22.18-63.06 33.91-110.33 35.66l-2.41.1v8.19ZM992.02 199.36v145.2H1121.23c30.05 0 53.37-6.62 69.85-20.2 16.54-13.65 24.84-33.03 24.84-57.8 0-21.75-7.28-39.1-21.52-51.47-14.22-12.37-34.81-18.23-60.83-18.23H994.52v2.25h-2.5v.25Zm212.94 360.02.08-.06.07-.07.18-.18c15.96-13.64 23.73-32.48 23.73-55.95 0-22.65-8.91-41-26.15-54.56-17.19-13.53-40.21-20.17-68.55-20.17h-142.3v151.22h148.85c26.61 0 48.15-6.65 64.09-20.23ZM1512.63 537.62h-1.77l-.59 1.67-47.02 133.97h-124.59l215.25-570.05h151.22l221.74 570.05h-128.59l-48.03-133.99-.59-1.65h-237.03Zm31.26-94.4 2.5.43v1.82h170.55l-1.19-3.34-34.51-96.87v-.01a3962.06 3962.06 0 0 1-46.82-143.6l-.54-1.77H1624.35l-.52 1.82c-12.07 42.73-27.42 91-46.05 144.56l-33.08 94.21h-.81v2.75ZM2339.85 500.84h2.6l-.11-2.6c-1.76-42.74-2.51-100.32-2.51-173.3V103.21h119.18v570.3h-131.88l-144.08-230.56c-5.33-9.38-14.18-23.26-26.23-41.82-41.05-67.69-68.23-113.2-81.81-136.83l-.72-1.25h-10.85l.1 2.59c1.76 48.27 2.52 115.18 2.52 200.99V673.5h-117.42V103.47h135.17l155.43 245.21 12.34 19.63c37.02 59.13 63.71 102.9 80.31 131.3l.73 1.24H2339.85ZM2508.36 673.26V103.21h227.73c55.76 0 105.29 10.04 148.89 30.3v.25l1.44.67c43.87 20.42 78.5 52.03 103.69 94.64 25.16 42.56 37.94 95.45 37.94 159.3 0 97.44-27.07 169.11-80.25 215.3-53.34 46.32-124 69.6-211.71 69.6h-227.73Zm121.7-95.9v2.5h102c52.19 0 93.69-16.05 124.72-48.07 31.09-32.1 46.3-77.87 46.3-143.43 0-65.5-15.19-114.1-46.33-145.22-31.04-31.01-72.79-46.28-125.45-46.28h-101.24v380.5ZM3195.84 196.86h-2.5v476.4h-121.7V103.21h613.4v93.65h-181.87v476.4h-120.7v-476.4h-186.63Z"/></g><g filter="url(#b)"><path fill="#FE0" d="M526.46 0c-112.6 0-236.28 68.7-314.11 133.89l6.04 8.8C339.3 58.13 506.81 3.27 552.91 85.82c24.43 43.54-17.13 131.37-75.32 200.83 13.86-30.7 4.79-89.6-76.57-89.6C266 197.05 0 376 0 558.95 0 632.43 50.88 680 134.76 680c224.44 0 528.98-367.68 528.98-552.15C663.74 62.66 626.21 0 526.71 0h-.25ZM211.59 482.44c-38.8 0-57.43-29.95-47.86-64.42 20.15-71.48 149.38-177.43 237.54-177.43 64.23 0 59.44 57.38 21.91 106.46l-20.9 23.15c-74.57 73.23-144.09 112.5-190.69 112.5v-.26Z"/><path stroke="#000" stroke-width="5" d="m219.03 139.2-3.33-4.85C293.43 69.77 415.55 2.5 526.46 2.5h.25c49.2 0 82.73 15.47 103.99 38.67 21.29 23.24 30.54 54.54 30.54 86.68 0 45.52-18.82 102.66-50.8 162.92-31.95 60.2-76.9 123.3-128.88 180.65-51.97 57.36-110.9 108.92-170.78 146.12-59.9 37.23-120.55 59.96-176.02 59.96-41.47 0-74.51-11.76-97.15-32.32-22.62-20.54-35.11-50.1-35.11-86.23 0-90.34 65.77-180.17 148.95-247.62 41.53-33.67 87.25-61.63 130.97-81.18 43.75-19.56 85.33-30.6 118.6-30.6 40.04 0 61.68 14.45 71.82 32.04 10.25 17.76 9.12 39.3 2.47 54.03l4.2 2.63c29.22-34.88 54.31-74.42 69.04-110.8 7.37-18.19 12.17-35.67 13.57-51.43 1.4-15.76-.6-29.96-7.03-41.43-11.95-21.39-31.75-33.79-56.37-39.05-24.56-5.24-53.99-3.42-85.56 3.61-62.43 13.9-133.91 48.29-194.13 90.05Zm-57.7 278.14c-4.95 17.82-2.68 34.73 6.15 47.26 8.49 12.04 22.78 19.68 41.61 20.3v.3h2.5c23.94 0 53.42-10.06 86.12-29.13 32.74-19.1 68.93-47.36 106.32-84.09l.05-.05.05-.06 20.9-23.15.08-.07.06-.08c18.93-24.75 29.94-52 27.7-73.41-1.13-10.81-5.65-20.19-14.28-26.82-8.57-6.59-20.92-10.25-37.32-10.25-44.91 0-99.8 26.9-145.8 62.43-23.06 17.82-44 37.9-60.46 58.04-16.43 20.12-28.52 40.45-33.69 58.78Z"/></g><g filter="url(#c)"><path fill="#FE0" d="M4390.26 461.1c144.15 12.89 231.57-146.64 219.78-233.55-13.8-101.56-99.7-126.55-144.3-126.55-118.03 0-213.02 82.08-241.84 217.84L4148 676h114.3l78.03-367.36c11.75-55.38 57.57-95.09 102.29-95.09 40.34 0 67.76 24.65 68.17 61.31.38 62.04-51.56 130.55-113.08 147.97l-7.42 38.3-.03-.04ZM4796.3 525.88v13.3c74.74 13.63 188.12 10.55 197.82 9.34a.7.7 0 0 1 .77.67v125.1c0 .4-.32.73-.72.68-158.29-9.06-230.37-82.44-230.37-145.35 0-51.32 32.59-101.07 59.95-133.76 29.89-35.73 52.65-69.14 54.6-124.12 2.62-73.5-64.77-88.67-97.5-56.96-26.24 25.4-35.92 86.69-38.41 153.83-.1 2.47-.19 4.92-.33 7.35 0 115.77.05 300.04.05 300.04h-112.12V323.41c0-68.72 20.1-123.53 55.49-160.59.04-.1.14-.23.27-.32 31.87-37.37 82.18-61.5 138.72-61.5 27.01 0 57.54 7.27 79.97 15.72 41.02 15.91 101.58 72.27 93.95 163.86-7.25 87.72-57.61 148.97-106.25 188.34-48.64 39.37-95.57 56.78-95.89 56.96Z"/><path stroke="#000" stroke-width="4.32" d="m4150.67 673.84 75.34-354.56c28.65-134.92 122.88-216.12 239.73-216.12 21.96 0 54.15 6.17 82.51 24.83 28.28 18.62 52.84 49.72 59.65 99.85 5.79 42.73-12.83 103.77-50.98 152.58-37.65 48.18-94.02 84.06-164.04 78.72l6.7-34.6c30.8-9.1 59.04-30.68 79.6-57.65 20.85-27.35 33.97-60.44 33.77-92.04-.21-18.9-7.4-34.82-19.83-46-12.41-11.16-29.89-17.46-50.5-17.46-45.95 0-92.49 40.64-104.4 96.8l-46.33 218.11-22.25 104.76-6.9 32.47-1.89 8.9-.3 1.41h-109.88ZM4795.23 524l-1.09.63v16.35l1.77.33c37.54 6.84 84.71 9.48 123.65 10.26 35.82.72 64.89-.13 73.17-.75v121.9c-78.04-4.69-134.7-25.12-171.84-51.98-37.39-27.05-54.93-60.53-54.93-91.12 0-50.51 32.14-99.75 59.45-132.38 29.99-35.85 53.13-69.73 55.1-125.42 1.34-37.5-15.24-60.57-36.79-70-21.39-9.35-47.36-5.07-64.37 11.41-13.59 13.15-22.69 35.34-28.72 62.34-6.05 27.07-9.11 59.33-10.35 92.96-.1 2.48-.19 4.9-.32 7.3l-.01.07v.06c0 57.88.01 132.9.03 193.43l.01 76 .01 22.47v5.98h-107.81V323.41c0-68.3 19.99-122.53 54.9-159.1l.22-.23.03-.06.11-.12c31.44-36.87 81.14-60.74 137.07-60.74 26.68 0 56.94 7.2 79.2 15.57 40.31 15.65 100.1 71.23 92.57 161.67-7.19 86.93-57.09 147.69-105.46 186.84-44.89 36.34-87.99 53.69-94.71 56.4-.53.21-.84.33-.89.37Z"/></g><g filter="url(#d)"><mask id="e" width="92" height="259" x="3890" y="280" fill="#000" maskUnits="userSpaceOnUse"><path fill="#fff" d="M3890 280h92v259h-92z"/><path d="M3894.84 535v-79.32h82.33V535h-82.33Zm0-171.68V284h82.33v79.32h-82.33Z"/></mask><path fill="#FE0" d="M3894.84 535v-79.32h82.33V535h-82.33Zm0-171.68V284h82.33v79.32h-82.33Z"/><path fill="#000" d="M3894.84 535h-4v4h4v-4Zm0-79.32v-4h-4v4h4Zm82.33 0h4v-4h-4v4Zm0 79.32v4h4v-4h-4Zm-82.33-171.68h-4v4h4v-4Zm0-79.32v-4h-4v4h4Zm82.33 0h4v-4h-4v4Zm0 79.32v4h4v-4h-4ZM3898.84 535v-79.32h-8V535h8Zm-4-75.32h82.33v-8h-82.33v8Zm78.33-4V535h8v-79.32h-8Zm4 75.32h-82.33v8h82.33v-8Zm-78.33-167.68V284h-8v79.32h8Zm-4-75.32h82.33v-8h-82.33v8Zm78.33-4v79.32h8V284h-8Zm4 75.32h-82.33v8h82.33v-8Z" mask="url(#e)"/></g><defs><filter id="a" width="2830.36" height="584.21" x="868.07" y="100.71" color-interpolation-filters="sRGB" filterUnits="userSpaceOnUse"><feFlood flood-opacity="0" result="BackgroundImageFix"/><feColorMatrix in="SourceAlpha" result="hardAlpha" values="0 0 0 0 0 0 0 0 0 0 0 0 0 0 0 0 0 0 127 0"/><feOffset dx="6.95" dy="4.95"/><feGaussianBlur stdDeviation="1.98"/><feComposite in2="hardAlpha" operator="out"/><feColorMatrix values="0 0 0 0 0 0 0 0 0 0 0 0 0 0 0 0 0 0 1 0"/><feBlend in2="BackgroundImageFix" result="effect1_dropShadow_1652_2"/><feBlend in="SourceGraphic" in2="effect1_dropShadow_1652_2" result="shape"/></filter><filter id="b" width="674.64" height="688.9" x="0" y="0" color-interpolation-filters="sRGB" filterUnits="userSpaceOnUse"><feFlood flood-opacity="0" result="BackgroundImageFix"/><feColorMatrix in="SourceAlpha" result="hardAlpha" values="0 0 0 0 0 0 0 0 0 0 0 0 0 0 0 0 0 0 127 0"/><feOffset dx="6.95" dy="4.95"/><feGaussianBlur stdDeviation="1.98"/><feComposite in2="hardAlpha" operator="out"/><feColorMatrix values="0 0 0 0 0 0 0 0 0 0 0 0 0 0 0 0 0 0 1 0"/><feBlend in2="BackgroundImageFix" result="effect1_dropShadow_1652_2"/><feBlend in="SourceGraphic" in2="effect1_dropShadow_1652_2" result="shape"/></filter><filter id="c" width="860.6" height="582.77" x="4148" y="101" color-interpolation-filters="sRGB" filterUnits="userSpaceOnUse"><feFlood flood-opacity="0" result="BackgroundImageFix"/><feColorMatrix in="SourceAlpha" result="hardAlpha" values="0 0 0 0 0 0 0 0 0 0 0 0 0 0 0 0 0 0 127 0"/><feOffset dx="6.05" dy="4.32"/><feGaussianBlur stdDeviation="1.73"/><feComposite in2="hardAlpha" operator="out"/><feColorMatrix values="0 0 0 0 0 0 0 0 0 0 0 0 0 0 0 0 0 0 1 0"/><feBlend in2="BackgroundImageFix" result="effect1_dropShadow_1652_2"/><feBlend in="SourceGraphic" in2="effect1_dropShadow_1652_2" result="shape"/></filter><filter id="d" width="101.23" height="267.9" x="3890.84" y="280" color-interpolation-filters="sRGB" filterUnits="userSpaceOnUse"><feFlood flood-opacity="0" result="BackgroundImageFix"/><feColorMatrix in="SourceAlpha" result="hardAlpha" values="0 0 0 0 0 0 0 0 0 0 0 0 0 0 0 0 0 0 127 0"/><feOffset dx="6.95" dy="4.95"/><feGaussianBlur stdDeviation="1.98"/><feComposite in2="hardAlpha" operator="out"/><feColorMatrix values="0 0 0 0 0 0 0 0 0 0 0 0 0 0 0 0 0 0 1 0"/><feBlend in2="BackgroundImageFix" result="effect1_dropShadow_1652_2"/><feBlend in="SourceGraphic" in2="effect1_dropShadow_1652_2" result="shape"/></filter></defs></svg>