<svg viewBox="0 0 775 95" fill="none" xmlns="http://www.w3.org/2000/svg"><path opacity=".8" d="M199.6 57.2c-4-3.8-9.8-5.8-17.5-6.1v-.8c6.8-.3 12.1-2 16-5.1 3.8-3.2 5.7-7.5 5.7-12.9a16 16 0 0 0-6.3-13.4c-4.2-3.2-10.1-4.8-17.7-4.8h-43.5V95h40a34 34 0 0 0 21.7-6c5.1-4.1 7.6-10 7.6-17.5 0-5.7-2-10.5-6-14.3Zm-45.3-29.3h19.8c3.7 0 6.5.9 8.4 2.5 2 1.7 3 4 3 7 0 3.4-1.2 6-3.5 7.9a15 15 0 0 1-9.7 2.7h-18V28ZM184 78.3a13.3 13.3 0 0 1-8.9 2.8h-20.8V60.5h20c3.9 0 7 1 9.5 2.8a8.9 8.9 0 0 1 3.5 7.4c0 3.2-1 5.8-3.3 7.6Zm49.6-64.2L202.7 95h18.5l6.8-19h33.4l7 19h19l-31.8-81h-22Zm-.8 48.2 4.8-13.6c2.6-7.5 4.8-14.3 6.5-20.3h.9a512 512 0 0 0 6.6 20.2l5 13.7h-23.8ZM345.3 14h17.6V95h-19.3L323 62.4l-3.7-5.9-11.7-19.3h-1c.3 6.8.4 16.2.4 28.3V95h-17.4V14h19.8l22.2 34.7 1.7 2.8c5.3 8.3 9.1 14.5 11.5 18.5h.8c-.2-6-.3-14.1-.3-24.4V14.1Zm78.2 4.3c-6.3-2.9-13.5-4.3-21.5-4.3h-32.8V95H402a45 45 0 0 0 30.3-9.9c7.7-6.6 11.5-16.8 11.5-30.6 0-9-1.8-16.5-5.4-22.6-3.6-6-8.6-10.5-15-13.4Zm-4.6 56a23.3 23.3 0 0 1-17.5 6.7h-14.2V27.9h14a24 24 0 0 1 17.7 6.4c4.3 4.3 6.4 11 6.4 20.2s-2.1 15.5-6.4 20Zm118.3-60.3v13.8h-25.8v67h-17.9V28h-26.2v67h-18V14.2h88ZM74.2 0C58.4 0 40.9 9.6 29.9 18.7l.9 1.2C47.8 8.1 71.4.5 77.9 12c3.5 6.1-2.4 18.4-10.6 28 2-4.2.7-12.4-10.8-12.4C37.5 27.5 0 52.5 0 78c0 10.2 7.2 16.9 19 16.9 31.6 0 74.5-51.3 74.5-77C93.5 8.6 88.2 0 74.2 0ZM29.8 67.3c-5.5 0-8-4.2-6.7-9 2.8-10 21-24.8 33.4-24.8 9.1 0 8.4 8 3.1 14.9l-3 3.2C46.3 61.8 36.5 67.3 29.9 67.3Zm535.5-24.5c0-1.8.6-3.3 1.8-4.4a6.4 6.4 0 0 1 4.6-1.8c1.8 0 3.4.6 4.7 1.8a5.9 5.9 0 0 1 1.8 4.4c0 1.8-.6 3.3-1.8 4.5a6.3 6.3 0 0 1-4.7 1.9c-1.9 0-3.3-.6-4.6-1.9a6 6 0 0 1-1.8-4.5Zm0 30.4c0-1.8.6-3.3 1.8-4.4a6.4 6.4 0 0 1 4.6-1.8c1.8 0 3.4.6 4.7 1.8a5.9 5.9 0 0 1 1.8 4.4c0 1.8-.6 3.3-1.8 4.6a6.3 6.3 0 0 1-4.7 1.8c-1.9 0-3.3-.6-4.6-1.8a6 6 0 0 1-1.8-4.6Zm177-18.9h3.9a23 23 0 0 0 14-6c1.2-1.2 2.3-2.6 3.2-4h3.9c1.7-3 2.6-6.4 2.6-10.2h3.9c0-4-1-7.3-2.7-10.1h3.9a17.4 17.4 0 0 0-4.3-4.8 31.2 31.2 0 0 0-19.5-5.4h-41.7V24h-3.9V34h-3.9v10.1h-3.9v10.2H694v10H690v10.2h-3.9v10.2h-3.9v10h18v-10h4V74.6h3.9v-8.8h16.8c3.5 0 6.2.3 8 .8 2 .6 3.3 1.6 4.2 3.1.7 1.2 1.3 2.9 1.8 5h-4l.4 1.7 1.3 8.4h-3.9l1.6 10.1h18l-1.7-10.1h4l-1.8-10.2h4l-.6-3.4c-.5-2.6-1.1-4.8-2-6.7h4c-1-2.3-2.3-4.2-3.9-5.5-2.8-2.4-7.3-3.6-13.4-3.7v-.8l1.4-.1Zm-22.5-20.2h3.9v-6.4h18.5c4.2 0 7.6 1.2 10.1 3.5 1 .8 1.8 1.8 2.4 3h-3.9a12 12 0 0 1 1.5 6 15 15 0 0 1-.5 4h-4c-.5 2.1-1.6 4-3.3 5.4-2.5 2.4-6 3.6-10.1 3.6h-18.5v-9h3.9V34.1ZM683 54.3h4c1.8-3 3-6.3 3.5-10h3.9A30.5 30.5 0 0 0 694 34h4a23 23 0 0 0-4.6-10.1h3.9c-1-1.2-2-2.3-3.2-3.3a33.2 33.2 0 0 0-21.9-6.9h-37V24h-3.9V34h-3.9v10.1h-3.9v10.2h-3.9v10h-3.9v10.2H612v10.2H608v10h18v-10h4V74.6h3.9V67H652c5.3 0 10.1-.9 14.3-2.5h4a25.6 25.6 0 0 0 12.6-9.8l.1-.3Zm-41.4 0v-10h3.9V34h3.9v-6.4h15c4.9 0 8.7 1.1 11.6 3.4 1.1.8 2 1.8 2.7 3h-4c1.2 1.9 1.8 4.3 1.8 7 0 1.1-.1 2.1-.3 3.1h-3.9c-.5 3-1.9 5.2-4 7a16.9 16.9 0 0 1-9 3.1h-4l-2.5.2h-15.1v-.2h3.9Z" fill="#E3FF24"/></svg>